<svg width="24" height="33" viewBox="0 0 24 33" fill="none" xmlns="http://www.w3.org/2000/svg">
<path d="M23.1187 7.1178L17.875 1.87405C17.3125 1.31155 16.55 0.992798 15.7563 0.992798H3C1.34375 0.999048 0 2.3428 0 3.99905V29.999C0 31.6553 1.34375 32.999 3 32.999H21C22.6562 32.999 24 31.6553 24 29.999V9.2428C24 8.44905 23.6812 7.6803 23.1187 7.1178ZM20.7563 8.99905H16V4.2428L20.7563 8.99905ZM3 29.999V3.99905H13V10.499C13 11.3303 13.6687 11.999 14.5 11.999H21V29.999H3ZM5 26.999H19V18.999L17.5312 17.5303C17.2375 17.2365 16.7625 17.2365 16.4688 17.5303L11 22.999L8.53125 20.5303C8.2375 20.2365 7.7625 20.2365 7.46875 20.5303L5 22.999V26.999ZM8 11.999C6.34375 11.999 5 13.3428 5 14.999C5 16.6553 6.34375 17.999 8 17.999C9.65625 17.999 11 16.6553 11 14.999C11 13.3428 9.65625 11.999 8 11.999Z" fill="#808080"/>
</svg>
