<svg width="40" height="40" viewBox="0 0 40 40" fill="none" xmlns="http://www.w3.org/2000/svg">
<path d="M38.0781 24.664L34.75 22.7421C35.086 20.9296 35.086 19.0703 34.75 17.2578L38.0781 15.3359C38.461 15.1171 38.6328 14.664 38.5078 14.2421C37.6406 11.4609 36.1641 8.94526 34.2344 6.85151C33.9375 6.5312 33.4531 6.45308 33.0781 6.67183L29.75 8.5937C28.3516 7.39058 26.7422 6.46089 25 5.85151V2.01558C25 1.57808 24.6953 1.19526 24.2656 1.10151C21.3985 0.460889 18.461 0.492139 15.7344 1.10151C15.3047 1.19526 15 1.57808 15 2.01558V5.85933C13.2656 6.47651 11.6563 7.4062 10.25 8.60151L6.92971 6.67964C6.54689 6.46089 6.07033 6.5312 5.77346 6.85933C3.84377 8.94526 2.36721 11.4609 1.50002 14.25C1.36721 14.6718 1.5469 15.125 1.92971 15.3437L5.25783 17.2656C4.9219 19.0781 4.9219 20.9375 5.25783 22.75L1.92971 24.6718C1.5469 24.8906 1.37502 25.3437 1.50002 25.7656C2.36721 28.5468 3.84377 31.0625 5.77346 33.1562C6.07033 33.4765 6.55471 33.5546 6.92971 33.3359L10.2578 31.414C11.6563 32.6171 13.2656 33.5468 15.0078 34.1562V38C15.0078 38.4375 15.3125 38.8203 15.7422 38.914C18.6094 39.5546 21.5469 39.5234 24.2735 38.914C24.7031 38.8203 25.0078 38.4375 25.0078 38V34.1562C26.7422 33.539 28.3516 32.6093 29.7578 31.414L33.086 33.3359C33.4688 33.5546 33.9453 33.4843 34.2422 33.1562C36.1719 31.0703 37.6485 28.5546 38.5156 25.7656C38.6328 25.3359 38.461 24.8828 38.0781 24.664V24.664ZM20 26.25C16.5547 26.25 13.75 23.4453 13.75 20C13.75 16.5546 16.5547 13.75 20 13.75C23.4453 13.75 26.25 16.5546 26.25 20C26.25 23.4453 23.4453 26.25 20 26.25Z" fill="black"/>
</svg>
